REM DIRINDEX 1\2,1\3,1\4,1\5
REM DIRNAME folder01,folder02,folder03,folder04,folder05
TITLE ""
FILE "Chapter_11.mp3" MP3
  TRACK 01 AUDIO
    TITLE "0:"
    INDEX 01 00:00:00
  TRACK 02 AUDIO
    TITLE "5:cjc087_3235"
    INDEX 01 00:00:07
  TRACK 03 AUDIO
    TITLE "0:"
    INDEX 01 00:01:60
  TRACK 04 AUDIO
    TITLE "5:cjc087_3236"
    INDEX 01 00:03:21
  TRACK 05 AUDIO
    TITLE "0:"
    INDEX 01 00:05:59
  TRACK 06 AUDIO
    TITLE "4:cjc087_3237"
    INDEX 01 00:06:59
  TRACK 07 AUDIO
    TITLE "3:cjc087_3238"
    INDEX 01 00:08:64
  TRACK 08 AUDIO
    TITLE "0:"
    INDEX 01 00:11:03
  TRACK 09 AUDIO
    TITLE "4:cjc087_3239"
    INDEX 01 00:12:01
  TRACK 10 AUDIO
    TITLE "3:cjc087_3240"
    INDEX 01 00:15:11
  TRACK 11 AUDIO
    TITLE "0:"
    INDEX 01 00:17:65
  TRACK 12 AUDIO
    TITLE "4:cjc087_3241"
    INDEX 01 00:18:62
  TRACK 13 AUDIO
    TITLE "3:cjc087_3242"
    INDEX 01 00:21:08
  TRACK 14 AUDIO
    TITLE "0:"
    INDEX 01 00:23:67
  TRACK 15 AUDIO
    TITLE "4:cjc087_3243"
    INDEX 01 00:24:65
  TRACK 16 AUDIO
    TITLE "3:cjc087_3244"
    INDEX 01 00:27:43
  TRACK 17 AUDIO
    TITLE "0:"
    INDEX 01 00:30:40
  TRACK 18 AUDIO
    TITLE "4:cjc087_3245"
    INDEX 01 00:31:37
  TRACK 19 AUDIO
    TITLE "3:cjc087_3246"
    INDEX 01 00:32:58
  TRACK 20 AUDIO
    TITLE "0:"
    INDEX 01 00:35:08
  TRACK 21 AUDIO
    TITLE "4:cjc087_3247"
    INDEX 01 00:36:05
  TRACK 22 AUDIO
    TITLE "3:cjc087_3248"
    INDEX 01 00:37:20
  TRACK 23 AUDIO
    TITLE "0:"
    INDEX 01 00:38:71
  TRACK 24 AUDIO
    TITLE "4:cjc087_3249"
    INDEX 01 00:39:68
  TRACK 25 AUDIO
    TITLE "3:cjc087_3250"
    INDEX 01 00:44:05
  TRACK 26 AUDIO
    TITLE "0:"
    INDEX 01 00:48:06
  TRACK 27 AUDIO
    TITLE "5:cjc087_3251"
    INDEX 01 00:49:43
  TRACK 28 AUDIO
    TITLE "0:"
    INDEX 01 00:51:73
  TRACK 29 AUDIO
    TITLE "4:cjc087_3252"
    INDEX 01 00:52:71
  TRACK 30 AUDIO
    TITLE "3:cjc087_3253"
    INDEX 01 00:55:01
  TRACK 31 AUDIO
    TITLE "0:"
    INDEX 01 00:57:21
  TRACK 32 AUDIO
    TITLE "4:cjc087_3254"
    INDEX 01 00:58:20
  TRACK 33 AUDIO
    TITLE "3:cjc087_3255"
    INDEX 01 01:00:51
  TRACK 34 AUDIO
    TITLE "0:"
    INDEX 01 01:03:14
  TRACK 35 AUDIO
    TITLE "4:cjc087_3256"
    INDEX 01 01:04:11
  TRACK 36 AUDIO
    TITLE "3:cjc087_3257"
    INDEX 01 01:05:69
  TRACK 37 AUDIO
    TITLE "0:"
    INDEX 01 01:10:37
  TRACK 38 AUDIO
    TITLE "4:cjc087_3258"
    INDEX 01 01:11:35
  TRACK 39 AUDIO
    TITLE "3:cjc087_3259"
    INDEX 01 01:14:35
  TRACK 40 AUDIO
    TITLE "0:"
    INDEX 01 01:17:24
  TRACK 41 AUDIO
    TITLE "4:cjc087_3260"
    INDEX 01 01:18:21
  TRACK 42 AUDIO
    TITLE "3:cjc087_3261"
    INDEX 01 01:19:74
  TRACK 43 AUDIO
    TITLE "0:"
    INDEX 01 01:22:05
  TRACK 44 AUDIO
    TITLE "4:cjc087_3262"
    INDEX 01 01:23:05
  TRACK 45 AUDIO
    TITLE "3:cjc087_3263"
    INDEX 01 01:24:57
  TRACK 46 AUDIO
    TITLE "0:"
    INDEX 01 01:27:44
  TRACK 47 AUDIO
    TITLE "4:cjc087_3264"
    INDEX 01 01:28:43
  TRACK 48 AUDIO
    TITLE "3:cjc087_3265"
    INDEX 01 01:31:28
  TRACK 49 AUDIO
    TITLE "0:"
    INDEX 01 01:33:44
  TRACK 50 AUDIO
    TITLE "5:cjc087_3266"
    INDEX 01 01:35:06
  TRACK 51 AUDIO
    TITLE "0:"
    INDEX 01 01:37:38
  TRACK 52 AUDIO
    TITLE "4:cjc087_3267"
    INDEX 01 01:38:34
  TRACK 53 AUDIO
    TITLE "3:cjc087_3268"
    INDEX 01 01:40:33
  TRACK 54 AUDIO
    TITLE "0:"
    INDEX 01 01:42:59
  TRACK 55 AUDIO
    TITLE "4:cjc087_3269"
    INDEX 01 01:43:58
  TRACK 56 AUDIO
    TITLE "3:cjc087_3270"
    INDEX 01 01:46:06
  TRACK 57 AUDIO
    TITLE "0:"
    INDEX 01 01:48:44
  TRACK 58 AUDIO
    TITLE "4:cjc087_3271"
    INDEX 01 01:49:35
  TRACK 59 AUDIO
    TITLE "3:cjc087_3272"
    INDEX 01 01:51:58
  TRACK 60 AUDIO
    TITLE "0:"
    INDEX 01 01:54:62
  TRACK 61 AUDIO
    TITLE "4:cjc087_3273"
    INDEX 01 01:55:63
  TRACK 62 AUDIO
    TITLE "3:cjc087_3274"
    INDEX 01 01:57:41
  TRACK 63 AUDIO
    TITLE "0:"
    INDEX 01 01:59:16
  TRACK 64 AUDIO
    TITLE "4:cjc087_3275"
    INDEX 01 02:00:16
  TRACK 65 AUDIO
    TITLE "3:cjc087_3276"
    INDEX 01 02:02:48
  TRACK 66 AUDIO
    TITLE "0:"
    INDEX 01 02:05:64
  TRACK 67 AUDIO
    TITLE "4:cjc087_3277"
    INDEX 01 02:06:61
  TRACK 68 AUDIO
    TITLE "3:cjc087_3278"
    INDEX 01 02:08:64
  TRACK 69 AUDIO
    TITLE "0:"
    INDEX 01 02:10:73
  TRACK 70 AUDIO
    TITLE "4:cjc087_3279"
    INDEX 01 02:11:68
  TRACK 71 AUDIO
    TITLE "3:cjc087_3280"
    INDEX 01 02:15:07
  TRACK 72 AUDIO
    TITLE "0:"
    INDEX 01 02:17:44
  TRACK 73 AUDIO
    TITLE "5:cjc087_3281"
    INDEX 01 02:19:03
  TRACK 74 AUDIO
    TITLE "0:"
    INDEX 01 02:21:37
  TRACK 75 AUDIO
    TITLE "4:cjc087_3282"
    INDEX 01 02:22:31
  TRACK 76 AUDIO
    TITLE "3:cjc087_3283"
    INDEX 01 02:24:32
  TRACK 77 AUDIO
    TITLE "0:"
    INDEX 01 02:26:56
  TRACK 78 AUDIO
    TITLE "4:cjc087_3284"
    INDEX 01 02:27:54
  TRACK 79 AUDIO
    TITLE "3:cjc087_3285"
    INDEX 01 02:34:46
  TRACK 80 AUDIO
    TITLE "0:"
    INDEX 01 02:38:50
  TRACK 81 AUDIO
    TITLE "4:cjc087_3286"
    INDEX 01 02:39:47
  TRACK 82 AUDIO
    TITLE "3:cjc087_3287"
    INDEX 01 02:41:50
  TRACK 83 AUDIO
    TITLE "0:"
    INDEX 01 02:43:53
  TRACK 84 AUDIO
    TITLE "4:cjc087_3288"
    INDEX 01 02:44:52
  TRACK 85 AUDIO
    TITLE "3:cjc087_3289"
    INDEX 01 02:46:51
  TRACK 86 AUDIO
    TITLE "0:"
    INDEX 01 02:49:26
  TRACK 87 AUDIO
    TITLE "4:cjc087_3290"
    INDEX 01 02:50:23
  TRACK 88 AUDIO
    TITLE "3:cjc087_3291"
    INDEX 01 02:52:26
  TRACK 89 AUDIO
    TITLE "0:"
    INDEX 01 02:54:23
  TRACK 90 AUDIO
    TITLE "4:cjc087_3292"
    INDEX 01 02:55:23
  TRACK 91 AUDIO
    TITLE "3:cjc087_3293"
    INDEX 01 02:56:57
  TRACK 92 AUDIO
    TITLE "0:"
    INDEX 01 02:58:52
  TRACK 93 AUDIO
    TITLE "4:cjc087_3294"
    INDEX 01 02:59:52
  TRACK 94 AUDIO
    TITLE "3:cjc087_3295"
    INDEX 01 03:01:11
  TRACK 95 AUDIO
    TITLE "0:"
    INDEX 01 03:02:52
  TRACK 96 AUDIO
    TITLE "5:cjc087_3296"
    INDEX 01 03:04:12
  TRACK 97 AUDIO
    TITLE "0:"
    INDEX 01 03:06:40
  TRACK 98 AUDIO
    TITLE "4:cjc087_3297"
    INDEX 01 03:07:38
  TRACK 99 AUDIO
    TITLE "3:cjc087_3298"
    INDEX 01 03:10:34
  TRACK 100 AUDIO
    TITLE "0:"
    INDEX 01 03:14:20
  TRACK 101 AUDIO
    TITLE "4:cjc087_3299"
    INDEX 01 03:15:17
  TRACK 102 AUDIO
    TITLE "3:cjc087_3300"
    INDEX 01 03:17:42
  TRACK 103 AUDIO
    TITLE "0:"
    INDEX 01 03:19:72
  TRACK 104 AUDIO
    TITLE "4:cjc087_3301"
    INDEX 01 03:20:72
  TRACK 105 AUDIO
    TITLE "3:cjc087_3302"
    INDEX 01 03:22:65
  TRACK 106 AUDIO
    TITLE "0:"
    INDEX 01 03:24:65
  TRACK 107 AUDIO
    TITLE "4:cjc087_3303"
    INDEX 01 03:25:63
  TRACK 108 AUDIO
    TITLE "3:cjc087_3304"
    INDEX 01 03:27:21
  TRACK 109 AUDIO
    TITLE "0:"
    INDEX 01 03:29:14
  TRACK 110 AUDIO
    TITLE "4:cjc087_3305"
    INDEX 01 03:30:13
  TRACK 111 AUDIO
    TITLE "3:cjc087_3306"
    INDEX 01 03:32:14
  TRACK 112 AUDIO
    TITLE "0:"
    INDEX 01 03:34:62
  TRACK 113 AUDIO
    TITLE "4:cjc087_3307"
    INDEX 01 03:35:59
  TRACK 114 AUDIO
    TITLE "3:cjc087_3308"
    INDEX 01 03:38:22
  TRACK 115 AUDIO
    TITLE "0:"
    INDEX 01 03:40:35
  TRACK 116 AUDIO
    TITLE "4:cjc087_3309"
    INDEX 01 03:41:34
  TRACK 117 AUDIO
    TITLE "3:cjc087_3310"
    INDEX 01 03:42:65
  TRACK 118 AUDIO
    TITLE "0:"
    INDEX 01 03:44:72
  TRACK 119 AUDIO
    TITLE "2:cjc087_3311"
    INDEX 01 03:46:30
  TRACK 120 AUDIO
    TITLE "0:"
    INDEX 01 03:55:48
  TRACK 121 AUDIO
    TITLE "5:cjc087_3312"
    INDEX 01 03:57:12
  TRACK 122 AUDIO
    TITLE "0:"
    INDEX 01 03:59:44
  TRACK 123 AUDIO
    TITLE "4:cjc087_3313"
    INDEX 01 04:00:42
  TRACK 124 AUDIO
    TITLE "3:cjc087_3314"
    INDEX 01 04:02:31
  TRACK 125 AUDIO
    TITLE "0:"
    INDEX 01 04:04:34
  TRACK 126 AUDIO
    TITLE "4:cjc087_3315"
    INDEX 01 04:05:31
  TRACK 127 AUDIO
    TITLE "3:cjc087_3316"
    INDEX 01 04:08:31
  TRACK 128 AUDIO
    TITLE "0:"
    INDEX 01 04:11:71
  TRACK 129 AUDIO
    TITLE "4:cjc087_3317"
    INDEX 01 04:12:68
  TRACK 130 AUDIO
    TITLE "3:cjc087_3318"
    INDEX 01 04:15:20
  TRACK 131 AUDIO
    TITLE "0:"
    INDEX 01 04:17:54
  TRACK 132 AUDIO
    TITLE "4:cjc087_3319"
    INDEX 01 04:18:51
  TRACK 133 AUDIO
    TITLE "3:cjc087_3320"
    INDEX 01 04:20:62
  TRACK 134 AUDIO
    TITLE "0:"
    INDEX 01 04:23:11
  TRACK 135 AUDIO
    TITLE "4:cjc087_3321"
    INDEX 01 04:24:09
  TRACK 136 AUDIO
    TITLE "3:cjc087_3322"
    INDEX 01 04:26:21
  TRACK 137 AUDIO
    TITLE "0:"
    INDEX 01 04:28:50
  TRACK 138 AUDIO
    TITLE "4:cjc087_3323"
    INDEX 01 04:29:47
  TRACK 139 AUDIO
    TITLE "3:cjc087_3324"
    INDEX 01 04:31:52
  TRACK 140 AUDIO
    TITLE "0:"
    INDEX 01 04:33:57
  TRACK 141 AUDIO
    TITLE "4:cjc087_3325"
    INDEX 01 04:34:56
  TRACK 142 AUDIO
    TITLE "3:cjc087_3326"
    INDEX 01 04:36:47
  TRACK 143 AUDIO
    TITLE "0:"
    INDEX 01 04:38:62
  TRACK 144 AUDIO
    TITLE "4:cjc087_3327"
    INDEX 01 04:39:61
  TRACK 145 AUDIO
    TITLE "3:cjc087_3328"
    INDEX 01 04:41:56
  TRACK 146 AUDIO
    TITLE "0:"
    INDEX 01 04:44:17
  TRACK 147 AUDIO
    TITLE "5:cjc087_3329"
    INDEX 01 04:45:54
  TRACK 148 AUDIO
    TITLE "0:"
    INDEX 01 04:48:11
  TRACK 149 AUDIO
    TITLE "4:cjc087_3330"
    INDEX 01 04:49:09
  TRACK 150 AUDIO
    TITLE "3:cjc087_3331"
    INDEX 01 04:53:18
  TRACK 151 AUDIO
    TITLE "0:"
    INDEX 01 04:55:70
  TRACK 152 AUDIO
    TITLE "4:cjc087_3332"
    INDEX 01 04:56:68
  TRACK 153 AUDIO
    TITLE "3:cjc087_3333"
    INDEX 01 04:59:54
  TRACK 154 AUDIO
    TITLE "0:"
    INDEX 01 05:02:35
  TRACK 155 AUDIO
    TITLE "4:cjc087_3334"
    INDEX 01 05:03:32
  TRACK 156 AUDIO
    TITLE "3:cjc087_3335"
    INDEX 01 05:05:06
  TRACK 157 AUDIO
    TITLE "0:"
    INDEX 01 05:06:64
  TRACK 158 AUDIO
    TITLE "4:cjc087_3336"
    INDEX 01 05:07:62
  TRACK 159 AUDIO
    TITLE "3:cjc087_3337"
    INDEX 01 05:11:04
  TRACK 160 AUDIO
    TITLE "0:"
    INDEX 01 05:13:25
  TRACK 161 AUDIO
    TITLE "4:cjc087_3338"
    INDEX 01 05:14:24
  TRACK 162 AUDIO
    TITLE "3:cjc087_3339"
    INDEX 01 05:17:25
  TRACK 163 AUDIO
    TITLE "0:"
    INDEX 01 05:19:61
  TRACK 164 AUDIO
    TITLE "4:cjc087_3340"
    INDEX 01 05:20:58
  TRACK 165 AUDIO
    TITLE "3:cjc087_3341"
    INDEX 01 05:22:26
  TRACK 166 AUDIO
    TITLE "0:"
    INDEX 01 05:24:21
  TRACK 167 AUDIO
    TITLE "4:cjc087_3342"
    INDEX 01 05:25:18
  TRACK 168 AUDIO
    TITLE "3:cjc087_3343"
    INDEX 01 05:27:47
  TRACK 169 AUDIO
    TITLE "0:"
    INDEX 01 05:30:29
  TRACK 170 AUDIO
    TITLE "5:cjc087_3344"
    INDEX 01 05:31:64
  TRACK 171 AUDIO
    TITLE "0:"
    INDEX 01 05:34:29
  TRACK 172 AUDIO
    TITLE "4:cjc087_3345"
    INDEX 01 05:35:27
  TRACK 173 AUDIO
    TITLE "3:cjc087_3346"
    INDEX 01 05:37:45
  TRACK 174 AUDIO
    TITLE "0:"
    INDEX 01 05:39:63
  TRACK 175 AUDIO
    TITLE "4:cjc087_3347"
    INDEX 01 05:40:61
  TRACK 176 AUDIO
    TITLE "3:cjc087_3348"
    INDEX 01 05:44:31
  TRACK 177 AUDIO
    TITLE "0:"
    INDEX 01 05:48:66
  TRACK 178 AUDIO
    TITLE "4:cjc087_3349"
    INDEX 01 05:49:64
  TRACK 179 AUDIO
    TITLE "3:cjc087_3350"
    INDEX 01 05:52:17
  TRACK 180 AUDIO
    TITLE "0:"
    INDEX 01 05:55:61
  TRACK 181 AUDIO
    TITLE "4:cjc087_3351"
    INDEX 01 05:56:60
  TRACK 182 AUDIO
    TITLE "3:cjc087_3352"
    INDEX 01 05:59:45
  TRACK 183 AUDIO
    TITLE "0:"
    INDEX 01 06:02:12
  TRACK 184 AUDIO
    TITLE "4:cjc087_3353"
    INDEX 01 06:03:27
  TRACK 185 AUDIO
    TITLE "3:cjc087_3354"
    INDEX 01 06:05:32
  TRACK 186 AUDIO
    TITLE "0:"
    INDEX 01 06:08:30
  TRACK 187 AUDIO
    TITLE "4:cjc087_3355"
    INDEX 01 06:09:29
  TRACK 188 AUDIO
    TITLE "3:cjc087_3356"
    INDEX 01 06:11:03
  TRACK 189 AUDIO
    TITLE "0:"
    INDEX 01 06:13:27
  TRACK 190 AUDIO
    TITLE "4:cjc087_3357"
    INDEX 01 06:14:23
  TRACK 191 AUDIO
    TITLE "3:cjc087_3358"
    INDEX 01 06:16:25
  TRACK 192 AUDIO
    TITLE "0:"
    INDEX 01 06:19:24
  TRACK 193 AUDIO
    TITLE "5:cjc087_3359"
    INDEX 01 06:20:59
  TRACK 194 AUDIO
    TITLE "0:"
    INDEX 01 06:23:18
  TRACK 195 AUDIO
    TITLE "4:cjc087_3360"
    INDEX 01 06:24:15
  TRACK 196 AUDIO
    TITLE "3:cjc087_3361"
    INDEX 01 06:26:34
  TRACK 197 AUDIO
    TITLE "0:"
    INDEX 01 06:29:14
  TRACK 198 AUDIO
    TITLE "4:cjc087_3362"
    INDEX 01 06:30:10
  TRACK 199 AUDIO
    TITLE "3:cjc087_3363"
    INDEX 01 06:32:03
  TRACK 200 AUDIO
    TITLE "0:"
    INDEX 01 06:34:14
  TRACK 201 AUDIO
    TITLE "4:cjc087_3364"
    INDEX 01 06:35:09
  TRACK 202 AUDIO
    TITLE "3:cjc087_3365"
    INDEX 01 06:37:33
  TRACK 203 AUDIO
    TITLE "0:"
    INDEX 01 06:40:28
  TRACK 204 AUDIO
    TITLE "4:cjc087_3366"
    INDEX 01 06:41:25
  TRACK 205 AUDIO
    TITLE "3:cjc087_3367"
    INDEX 01 06:42:41
  TRACK 206 AUDIO
    TITLE "0:"
    INDEX 01 06:44:43
  TRACK 207 AUDIO
    TITLE "4:cjc087_3368"
    INDEX 01 06:45:41
  TRACK 208 AUDIO
    TITLE "3:cjc087_3369"
    INDEX 01 06:48:24
  TRACK 209 AUDIO
    TITLE "0:"
    INDEX 01 06:51:34
  TRACK 210 AUDIO
    TITLE "4:cjc087_3370"
    INDEX 01 06:52:33
  TRACK 211 AUDIO
    TITLE "3:cjc087_3371"
    INDEX 01 06:54:40
  TRACK 212 AUDIO
    TITLE "0:"
    INDEX 01 06:56:45
  TRACK 213 AUDIO
    TITLE "4:cjc087_3372"
    INDEX 01 06:57:42
  TRACK 214 AUDIO
    TITLE "3:cjc087_3373"
    INDEX 01 07:00:56
  TRACK 215 AUDIO
    TITLE "0:"
    INDEX 01 07:03:29
  TRACK 216 AUDIO
    TITLE "5:cjc087_3374"
    INDEX 01 07:04:64
  TRACK 217 AUDIO
    TITLE "0:"
    INDEX 01 07:07:05
  TRACK 218 AUDIO
    TITLE "4:cjc087_3375"
    INDEX 01 07:08:03
  TRACK 219 AUDIO
    TITLE "3:cjc087_3376"
    INDEX 01 07:11:23
  TRACK 220 AUDIO
    TITLE "0:"
    INDEX 01 07:17:19
  TRACK 221 AUDIO
    TITLE "4:cjc087_3377"
    INDEX 01 07:18:19
  TRACK 222 AUDIO
    TITLE "3:cjc087_3378"
    INDEX 01 07:20:67
  TRACK 223 AUDIO
    TITLE "0:"
    INDEX 01 07:23:63
  TRACK 224 AUDIO
    TITLE "4:cjc087_3379"
    INDEX 01 07:24:60
  TRACK 225 AUDIO
    TITLE "3:cjc087_3380"
    INDEX 01 07:26:52
  TRACK 226 AUDIO
    TITLE "0:"
    INDEX 01 07:28:70
  TRACK 227 AUDIO
    TITLE "4:cjc087_3381"
    INDEX 01 07:29:68
  TRACK 228 AUDIO
    TITLE "3:cjc087_3382"
    INDEX 01 07:32:33
  TRACK 229 AUDIO
    TITLE "0:"
    INDEX 01 07:35:11
  TRACK 230 AUDIO
    TITLE "4:cjc087_3383"
    INDEX 01 07:36:11
  TRACK 231 AUDIO
    TITLE "3:cjc087_3384"
    INDEX 01 07:38:27
  TRACK 232 AUDIO
    TITLE "0:"
    INDEX 01 07:42:06
  TRACK 233 AUDIO
    TITLE "4:cjc087_3385"
    INDEX 01 07:43:03
  TRACK 234 AUDIO
    TITLE "3:cjc087_3386"
    INDEX 01 07:45:53
  TRACK 235 AUDIO
    TITLE "0:"
    INDEX 01 07:48:06
  TRACK 236 AUDIO
    TITLE "4:cjc087_3387"
    INDEX 01 07:49:04
  TRACK 237 AUDIO
    TITLE "3:cjc087_3388"
    INDEX 01 07:51:08
  TRACK 238 AUDIO
    TITLE "0:"
    INDEX 01 07:52:71
  TRACK 239 AUDIO
    TITLE "2:cjc087_3389"
    INDEX 01 07:54:30
  TRACK 240 AUDIO
    TITLE "0:"
    INDEX 01 08:10:27
  TRACK 241 AUDIO
    TITLE "5:cjc087_3390"
    INDEX 01 08:11:62
  TRACK 242 AUDIO
    TITLE "0:"
    INDEX 01 08:14:27
  TRACK 243 AUDIO
    TITLE "4:cjc087_3391"
    INDEX 01 08:15:23
  TRACK 244 AUDIO
    TITLE "3:cjc087_3392"
    INDEX 01 08:17:06
  TRACK 245 AUDIO
    TITLE "0:"
    INDEX 01 08:19:05
  TRACK 246 AUDIO
    TITLE "4:cjc087_3393"
    INDEX 01 08:20:04
  TRACK 247 AUDIO
    TITLE "3:cjc087_3394"
    INDEX 01 08:23:34
  TRACK 248 AUDIO
    TITLE "0:"
    INDEX 01 08:27:43
  TRACK 249 AUDIO
    TITLE "4:cjc087_3395"
    INDEX 01 08:28:39
  TRACK 250 AUDIO
    TITLE "3:cjc087_3396"
    INDEX 01 08:30:05
  TRACK 251 AUDIO
    TITLE "0:"
    INDEX 01 08:31:63
  TRACK 252 AUDIO
    TITLE "4:cjc087_3397"
    INDEX 01 08:32:60
  TRACK 253 AUDIO
    TITLE "3:cjc087_3398"
    INDEX 01 08:35:06
  TRACK 254 AUDIO
    TITLE "0:"
    INDEX 01 08:37:14
  TRACK 255 AUDIO
    TITLE "4:cjc087_3399"
    INDEX 01 08:38:14
  TRACK 256 AUDIO
    TITLE "3:cjc087_3400"
    INDEX 01 08:40:48
  TRACK 257 AUDIO
    TITLE "0:"
    INDEX 01 08:43:17
  TRACK 258 AUDIO
    TITLE "4:cjc087_3401"
    INDEX 01 08:44:16
  TRACK 259 AUDIO
    TITLE "3:cjc087_3402"
    INDEX 01 08:46:74
  TRACK 260 AUDIO
    TITLE "0:"
    INDEX 01 08:49:65
  TRACK 261 AUDIO
    TITLE "4:cjc087_3403"
    INDEX 01 08:50:64
  TRACK 262 AUDIO
    TITLE "3:cjc087_3404"
    INDEX 01 08:52:57
  TRACK 263 AUDIO
    TITLE "0:"
    INDEX 01 08:54:74
  TRACK 264 AUDIO
    TITLE "4:cjc087_3405"
    INDEX 01 08:55:71
  TRACK 265 AUDIO
    TITLE "3:cjc087_3406"
    INDEX 01 08:57:48
  TRACK 266 AUDIO
    TITLE "0:"
    INDEX 01 09:00:17
  TRACK 267 AUDIO
    TITLE "5:cjc087_3407"
    INDEX 01 09:01:60
  TRACK 268 AUDIO
    TITLE "0:"
    INDEX 01 09:04:19
  TRACK 269 AUDIO
    TITLE "4:cjc087_3408"
    INDEX 01 09:05:17
  TRACK 270 AUDIO
    TITLE "3:cjc087_3409"
    INDEX 01 09:07:53
  TRACK 271 AUDIO
    TITLE "0:"
    INDEX 01 09:09:57
  TRACK 272 AUDIO
    TITLE "4:cjc087_3410"
    INDEX 01 09:10:55
  TRACK 273 AUDIO
    TITLE "3:cjc087_3411"
    INDEX 01 09:13:63
  TRACK 274 AUDIO
    TITLE "0:"
    INDEX 01 09:18:53
  TRACK 275 AUDIO
    TITLE "4:cjc087_3412"
    INDEX 01 09:19:52
  TRACK 276 AUDIO
    TITLE "3:cjc087_3413"
    INDEX 01 09:23:03
  TRACK 277 AUDIO
    TITLE "0:"
    INDEX 01 09:26:44
  TRACK 278 AUDIO
    TITLE "4:cjc087_3414"
    INDEX 01 09:27:42
  TRACK 279 AUDIO
    TITLE "3:cjc087_3415"
    INDEX 01 09:29:27
  TRACK 280 AUDIO
    TITLE "0:"
    INDEX 01 09:31:45
  TRACK 281 AUDIO
    TITLE "4:cjc087_3416"
    INDEX 01 09:32:45
  TRACK 282 AUDIO
    TITLE "3:cjc087_3417"
    INDEX 01 09:34:52
  TRACK 283 AUDIO
    TITLE "0:"
    INDEX 01 09:36:64
  TRACK 284 AUDIO
    TITLE "4:cjc087_3418"
    INDEX 01 09:37:62
  TRACK 285 AUDIO
    TITLE "3:cjc087_3419"
    INDEX 01 09:38:69
  TRACK 286 AUDIO
    TITLE "0:"
    INDEX 01 09:44:34
  TRACK 287 AUDIO
    TITLE "4:cjc087_3420"
    INDEX 01 09:45:32
  TRACK 288 AUDIO
    TITLE "3:cjc087_3421"
    INDEX 01 09:46:55
  TRACK 289 AUDIO
    TITLE "0:"
    INDEX 01 09:49:32
  TRACK 290 AUDIO
    TITLE "5:cjc087_3422"
    INDEX 01 09:50:68
  TRACK 291 AUDIO
    TITLE "0:"
    INDEX 01 09:53:31
  TRACK 292 AUDIO
    TITLE "4:cjc087_3423"
    INDEX 01 09:54:29
  TRACK 293 AUDIO
    TITLE "3:cjc087_3424"
    INDEX 01 09:56:59
  TRACK 294 AUDIO
    TITLE "0:"
    INDEX 01 09:59:51
  TRACK 295 AUDIO
    TITLE "4:cjc087_3425"
    INDEX 01 10:00:53
  TRACK 296 AUDIO
    TITLE "3:cjc087_3426"
    INDEX 01 10:02:48
  TRACK 297 AUDIO
    TITLE "0:"
    INDEX 01 10:04:72
  TRACK 298 AUDIO
    TITLE "4:cjc087_3427"
    INDEX 01 10:05:70
  TRACK 299 AUDIO
    TITLE "3:cjc087_3428"
    INDEX 01 10:08:09
  TRACK 300 AUDIO
    TITLE "0:"
    INDEX 01 10:10:55
  TRACK 301 AUDIO
    TITLE "4:cjc087_3429"
    INDEX 01 10:11:53
  TRACK 302 AUDIO
    TITLE "3:cjc087_3430"
    INDEX 01 10:14:69
  TRACK 303 AUDIO
    TITLE "0:"
    INDEX 01 10:17:51
  TRACK 304 AUDIO
    TITLE "4:cjc087_3431"
    INDEX 01 10:18:49
  TRACK 305 AUDIO
    TITLE "3:cjc087_3432"
    INDEX 01 10:21:20
  TRACK 306 AUDIO
    TITLE "0:"
    INDEX 01 10:24:00
  TRACK 307 AUDIO
    TITLE "4:cjc087_3433"
    INDEX 01 10:25:00
  TRACK 308 AUDIO
    TITLE "3:cjc087_3434"
    INDEX 01 10:28:02
  TRACK 309 AUDIO
    TITLE "0:"
    INDEX 01 10:30:62
  TRACK 310 AUDIO
    TITLE "4:cjc087_3435"
    INDEX 01 10:31:59
  TRACK 311 AUDIO
    TITLE "3:cjc087_3436"
    INDEX 01 10:33:66
  TRACK 312 AUDIO
    TITLE "0:"
    INDEX 01 10:36:17
  TRACK 313 AUDIO
    TITLE "5:cjc087_3437"
    INDEX 01 10:37:52
  TRACK 314 AUDIO
    TITLE "0:"
    INDEX 01 10:40:15
  TRACK 315 AUDIO
    TITLE "4:cjc087_3438"
    INDEX 01 10:41:15
  TRACK 316 AUDIO
    TITLE "3:cjc087_3439"
    INDEX 01 10:43:21
  TRACK 317 AUDIO
    TITLE "0:"
    INDEX 01 10:45:36
  TRACK 318 AUDIO
    TITLE "4:cjc087_3440"
    INDEX 01 10:46:37
  TRACK 319 AUDIO
    TITLE "3:cjc087_3441"
    INDEX 01 10:47:66
  TRACK 320 AUDIO
    TITLE "0:"
    INDEX 01 10:49:57
  TRACK 321 AUDIO
    TITLE "4:cjc087_3442"
    INDEX 01 10:50:53
  TRACK 322 AUDIO
    TITLE "3:cjc087_3443"
    INDEX 01 10:53:51
  TRACK 323 AUDIO
    TITLE "0:"
    INDEX 01 10:56:02
  TRACK 324 AUDIO
    TITLE "4:cjc087_3444"
    INDEX 01 10:57:02
  TRACK 325 AUDIO
    TITLE "3:cjc087_3445"
    INDEX 01 10:58:37
  TRACK 326 AUDIO
    TITLE "0:"
    INDEX 01 11:00:24
  TRACK 327 AUDIO
    TITLE "4:cjc087_3446"
    INDEX 01 11:01:21
  TRACK 328 AUDIO
    TITLE "3:cjc087_3447"
    INDEX 01 11:03:30
  TRACK 329 AUDIO
    TITLE "0:"
    INDEX 01 11:05:01
  TRACK 330 AUDIO
    TITLE "4:cjc087_3448"
    INDEX 01 11:05:72
  TRACK 331 AUDIO
    TITLE "3:cjc087_3449"
    INDEX 01 11:09:11
  TRACK 332 AUDIO
    TITLE "0:"
    INDEX 01 11:11:43
  TRACK 333 AUDIO
    TITLE "4:cjc087_3450"
    INDEX 01 11:12:41
  TRACK 334 AUDIO
    TITLE "3:cjc087_3451"
    INDEX 01 11:14:43
  TRACK 335 AUDIO
    TITLE "0:"
    INDEX 01 11:16:35
  TRACK 336 AUDIO
    TITLE "4:cjc087_3452"
    INDEX 01 11:17:34
  TRACK 337 AUDIO
    TITLE "3:cjc087_3453"
    INDEX 01 11:23:48
  TRACK 338 AUDIO
    TITLE "0:"
    INDEX 01 11:27:05
  TRACK 339 AUDIO
    TITLE "5:cjc087_3454"
    INDEX 01 11:28:44
  TRACK 340 AUDIO
    TITLE "0:"
    INDEX 01 11:31:03
  TRACK 341 AUDIO
    TITLE "4:cjc087_3455"
    INDEX 01 11:32:00
  TRACK 342 AUDIO
    TITLE "3:cjc087_3456"
    INDEX 01 11:33:39
  TRACK 343 AUDIO
    TITLE "0:"
    INDEX 01 11:35:42
  TRACK 344 AUDIO
    TITLE "4:cjc087_3457"
    INDEX 01 11:36:41
  TRACK 345 AUDIO
    TITLE "3:cjc087_3458"
    INDEX 01 11:38:18
  TRACK 346 AUDIO
    TITLE "0:"
    INDEX 01 11:39:67
  TRACK 347 AUDIO
    TITLE "4:cjc087_3459"
    INDEX 01 11:40:66
  TRACK 348 AUDIO
    TITLE "3:cjc087_3460"
    INDEX 01 11:42:26
  TRACK 349 AUDIO
    TITLE "0:"
    INDEX 01 11:44:01
  TRACK 350 AUDIO
    TITLE "4:cjc087_3461"
    INDEX 01 11:44:74
  TRACK 351 AUDIO
    TITLE "3:cjc087_3462"
    INDEX 01 11:47:06
  TRACK 352 AUDIO
    TITLE "0:"
    INDEX 01 11:49:30
  TRACK 353 AUDIO
    TITLE "4:cjc087_3463"
    INDEX 01 11:50:26
  TRACK 354 AUDIO
    TITLE "3:cjc087_3464"
    INDEX 01 11:53:20
  TRACK 355 AUDIO
    TITLE "0:"
    INDEX 01 11:55:64
  TRACK 356 AUDIO
    TITLE "4:cjc087_3465"
    INDEX 01 11:56:69
  TRACK 357 AUDIO
    TITLE "3:cjc087_3466"
    INDEX 01 11:59:30
  TRACK 358 AUDIO
    TITLE "0:"
    INDEX 01 12:01:04
  TRACK 359 AUDIO
    TITLE "4:cjc087_3467"
    INDEX 01 12:02:03
  TRACK 360 AUDIO
    TITLE "3:cjc087_3468"
    INDEX 01 12:03:56
  TRACK 361 AUDIO
    TITLE "0:"
    INDEX 01 12:05:37
  TRACK 362 AUDIO
    TITLE "2:cjc087_3469"
    INDEX 01 12:07:01
  TRACK 363 AUDIO
    TITLE "0:"
    INDEX 01 12:24:34
  TRACK 364 AUDIO
    TITLE "5:cjc087_3470"
    INDEX 01 12:26:02
  TRACK 365 AUDIO
    TITLE "0:"
    INDEX 01 12:28:44
  TRACK 366 AUDIO
    TITLE "4:cjc087_3471"
    INDEX 01 12:29:41
  TRACK 367 AUDIO
    TITLE "3:cjc087_3472"
    INDEX 01 12:31:13
  TRACK 368 AUDIO
    TITLE "0:"
    INDEX 01 12:33:37
  TRACK 369 AUDIO
    TITLE "4:cjc087_3473"
    INDEX 01 12:34:37
  TRACK 370 AUDIO
    TITLE "3:cjc087_3474"
    INDEX 01 12:36:32
  TRACK 371 AUDIO
    TITLE "0:"
    INDEX 01 12:38:21
  TRACK 372 AUDIO
    TITLE "4:cjc087_3475"
    INDEX 01 12:39:16
  TRACK 373 AUDIO
    TITLE "3:cjc087_3476"
    INDEX 01 12:41:52
  TRACK 374 AUDIO
    TITLE "0:"
    INDEX 01 12:44:35
  TRACK 375 AUDIO
    TITLE "4:cjc087_3477"
    INDEX 01 12:45:34
  TRACK 376 AUDIO
    TITLE "3:cjc087_3478"
    INDEX 01 12:47:18
  TRACK 377 AUDIO
    TITLE "0:"
    INDEX 01 12:49:01
  TRACK 378 AUDIO
    TITLE "4:cjc087_3479"
    INDEX 01 12:50:00
  TRACK 379 AUDIO
    TITLE "3:cjc087_3480"
    INDEX 01 12:51:61
  TRACK 380 AUDIO
    TITLE "0:"
    INDEX 01 12:53:20
  TRACK 381 AUDIO
    TITLE "4:cjc087_3481"
    INDEX 01 12:54:28
  TRACK 382 AUDIO
    TITLE "3:cjc087_3482"
    INDEX 01 12:56:05
  TRACK 383 AUDIO
    TITLE "0:"
    INDEX 01 12:58:02
  TRACK 384 AUDIO
    TITLE "4:cjc087_3483"
    INDEX 01 12:58:74
  TRACK 385 AUDIO
    TITLE "3:cjc087_3484"
    INDEX 01 13:05:02
  TRACK 386 AUDIO
    TITLE "0:"
    INDEX 01 13:08:18
  TRACK 387 AUDIO
    TITLE "5:cjc087_3485"
    INDEX 01 13:09:55
  TRACK 388 AUDIO
    TITLE "0:"
    INDEX 01 13:12:20
  TRACK 389 AUDIO
    TITLE "4:cjc087_3486"
    INDEX 01 13:13:15
  TRACK 390 AUDIO
    TITLE "3:cjc087_3487"
    INDEX 01 13:15:16
  TRACK 391 AUDIO
    TITLE "0:"
    INDEX 01 13:17:03
  TRACK 392 AUDIO
    TITLE "4:cjc087_3488"
    INDEX 01 13:18:03
  TRACK 393 AUDIO
    TITLE "3:cjc087_3489"
    INDEX 01 13:19:59
  TRACK 394 AUDIO
    TITLE "0:"
    INDEX 01 13:21:66
  TRACK 395 AUDIO
    TITLE "4:cjc087_3490"
    INDEX 01 13:22:67
  TRACK 396 AUDIO
    TITLE "3:cjc087_3491"
    INDEX 01 13:25:18
  TRACK 397 AUDIO
    TITLE "0:"
    INDEX 01 13:27:29
  TRACK 398 AUDIO
    TITLE "4:cjc087_3492"
    INDEX 01 13:28:28
  TRACK 399 AUDIO
    TITLE "3:cjc087_3493"
    INDEX 01 13:30:02
  TRACK 400 AUDIO
    TITLE "0:"
    INDEX 01 13:32:69
  TRACK 401 AUDIO
    TITLE "4:cjc087_3494"
    INDEX 01 13:33:69
  TRACK 402 AUDIO
    TITLE "3:cjc087_3495"
    INDEX 01 13:35:38
  TRACK 403 AUDIO
    TITLE "0:"
    INDEX 01 13:37:51
  TRACK 404 AUDIO
    TITLE "4:cjc087_3496"
    INDEX 01 13:38:50
  TRACK 405 AUDIO
    TITLE "3:cjc087_3497"
    INDEX 01 13:40:32
  TRACK 406 AUDIO
    TITLE "0:"
    INDEX 01 13:42:44
  TRACK 407 AUDIO
    TITLE "4:cjc087_3498"
    INDEX 01 13:43:42
  TRACK 408 AUDIO
    TITLE "3:cjc087_3499"
    INDEX 01 13:45:27
  TRACK 409 AUDIO
    TITLE "0:"
    INDEX 01 13:47:39
  TRACK 410 AUDIO
    TITLE "5:cjc087_3500"
    INDEX 01 13:48:74
  TRACK 411 AUDIO
    TITLE "0:"
    INDEX 01 13:51:45
  TRACK 412 AUDIO
    TITLE "4:cjc087_3501"
    INDEX 01 13:52:43
  TRACK 413 AUDIO
    TITLE "3:cjc087_3502"
    INDEX 01 13:54:22
  TRACK 414 AUDIO
    TITLE "0:"
    INDEX 01 13:56:11
  TRACK 415 AUDIO
    TITLE "4:cjc087_3503"
    INDEX 01 13:57:09
  TRACK 416 AUDIO
    TITLE "3:cjc087_3504"
    INDEX 01 13:58:69
  TRACK 417 AUDIO
    TITLE "0:"
    INDEX 01 14:00:64
  TRACK 418 AUDIO
    TITLE "4:cjc087_3505"
    INDEX 01 14:01:55
  TRACK 419 AUDIO
    TITLE "3:cjc087_3506"
    INDEX 01 14:03:33
  TRACK 420 AUDIO
    TITLE "0:"
    INDEX 01 14:05:49
  TRACK 421 AUDIO
    TITLE "4:cjc087_3507"
    INDEX 01 14:06:49
  TRACK 422 AUDIO
    TITLE "3:cjc087_3508"
    INDEX 01 14:08:06
  TRACK 423 AUDIO
    TITLE "0:"
    INDEX 01 14:09:70
  TRACK 424 AUDIO
    TITLE "4:cjc087_3509"
    INDEX 01 14:10:68
  TRACK 425 AUDIO
    TITLE "3:cjc087_3510"
    INDEX 01 14:12:41
  TRACK 426 AUDIO
    TITLE "0:"
    INDEX 01 14:14:40
  TRACK 427 AUDIO
    TITLE "4:cjc087_3511"
    INDEX 01 14:15:38
  TRACK 428 AUDIO
    TITLE "3:cjc087_3512"
    INDEX 01 14:17:70
  TRACK 429 AUDIO
    TITLE "0:"
    INDEX 01 14:20:47
  TRACK 430 AUDIO
    TITLE "4:cjc087_3513"
    INDEX 01 14:21:42
  TRACK 431 AUDIO
    TITLE "3:cjc087_3514"
    INDEX 01 14:24:29
  TRACK 432 AUDIO
    TITLE "0:"
    INDEX 01 14:27:47
  TRACK 433 AUDIO
    TITLE "5:cjc087_3515"
    INDEX 01 14:29:07
  TRACK 434 AUDIO
    TITLE "0:"
    INDEX 01 14:31:52
  TRACK 435 AUDIO
    TITLE "4:cjc087_3516"
    INDEX 01 14:32:52
  TRACK 436 AUDIO
    TITLE "3:cjc087_3517"
    INDEX 01 14:34:19
  TRACK 437 AUDIO
    TITLE "0:"
    INDEX 01 14:35:72
  TRACK 438 AUDIO
    TITLE "4:cjc087_3518"
    INDEX 01 14:36:71
  TRACK 439 AUDIO
    TITLE "3:cjc087_3519"
    INDEX 01 14:38:51
  TRACK 440 AUDIO
    TITLE "0:"
    INDEX 01 14:40:65
  TRACK 441 AUDIO
    TITLE "4:cjc087_3520"
    INDEX 01 14:41:63
  TRACK 442 AUDIO
    TITLE "3:cjc087_3521"
    INDEX 01 14:43:63
  TRACK 443 AUDIO
    TITLE "0:"
    INDEX 01 14:45:62
  TRACK 444 AUDIO
    TITLE "4:cjc087_3522"
    INDEX 01 14:46:62
  TRACK 445 AUDIO
    TITLE "3:cjc087_3523"
    INDEX 01 14:47:71
  TRACK 446 AUDIO
    TITLE "0:"
    INDEX 01 14:50:09
  TRACK 447 AUDIO
    TITLE "4:cjc087_3524"
    INDEX 01 14:51:06
  TRACK 448 AUDIO
    TITLE "3:cjc087_3525"
    INDEX 01 14:55:53
  TRACK 449 AUDIO
    TITLE "0:"
    INDEX 01 14:59:14
  TRACK 450 AUDIO
    TITLE "4:cjc087_3526"
    INDEX 01 15:00:09
  TRACK 451 AUDIO
    TITLE "3:cjc087_3527"
    INDEX 01 15:02:00
  TRACK 452 AUDIO
    TITLE "0:"
    INDEX 01 15:04:36
  TRACK 453 AUDIO
    TITLE "4:cjc087_3528"
    INDEX 01 15:05:32
  TRACK 454 AUDIO
    TITLE "3:cjc087_3529"
    INDEX 01 15:07:50
  TRACK 455 AUDIO
    TITLE "0:"
    INDEX 01 15:10:37
  TRACK 456 AUDIO
    TITLE "5:cjc087_3530"
    INDEX 01 15:11:72
  TRACK 457 AUDIO
    TITLE "0:"
    INDEX 01 15:14:13
  TRACK 458 AUDIO
    TITLE "3:cjc087_3531"
    INDEX 01 15:15:13
  TRACK 459 AUDIO
    TITLE "4:cjc087_3532"
    INDEX 01 15:17:25
  TRACK 460 AUDIO
    TITLE "0:"
    INDEX 01 15:19:48
  TRACK 461 AUDIO
    TITLE "3:cjc087_3533"
    INDEX 01 15:20:45
  TRACK 462 AUDIO
    TITLE "4:cjc087_3534"
    INDEX 01 15:22:38
  TRACK 463 AUDIO
    TITLE "0:"
    INDEX 01 15:24:31
  TRACK 464 AUDIO
    TITLE "3:cjc087_3535"
    INDEX 01 15:25:33
  TRACK 465 AUDIO
    TITLE "4:cjc087_3536"
    INDEX 01 15:28:68
  TRACK 466 AUDIO
    TITLE "0:"
    INDEX 01 15:31:51
  TRACK 467 AUDIO
    TITLE "3:cjc087_3537"
    INDEX 01 15:32:48
  TRACK 468 AUDIO
    TITLE "4:cjc087_3538"
    INDEX 01 15:35:54
  TRACK 469 AUDIO
    TITLE "0:"
    INDEX 01 15:38:49
  TRACK 470 AUDIO
    TITLE "3:cjc087_3539"
    INDEX 01 15:39:48
  TRACK 471 AUDIO
    TITLE "4:cjc087_3540"
    INDEX 01 15:42:21
  TRACK 472 AUDIO
    TITLE "0:"
    INDEX 01 15:45:29
  TRACK 473 AUDIO
    TITLE "3:cjc087_3541"
    INDEX 01 15:46:25
  TRACK 474 AUDIO
    TITLE "4:cjc087_3542"
    INDEX 01 15:48:43
  TRACK 475 AUDIO
    TITLE "0:"
    INDEX 01 15:51:01
  TRACK 476 AUDIO
    TITLE "2:cjc087_3543"
    INDEX 01 15:52:33
  TRACK 477 AUDIO
    TITLE "0:"
    INDEX 01 16:09:44
  TRACK 478 AUDIO
    TITLE "5:cjc087_3544"
    INDEX 01 16:11:09
  TRACK 479 AUDIO
    TITLE "0:"
    INDEX 01 16:13:51
  TRACK 480 AUDIO
    TITLE "4:cjc087_3545"
    INDEX 01 16:14:47
  TRACK 481 AUDIO
    TITLE "3:cjc087_3546"
    INDEX 01 16:16:00
  TRACK 482 AUDIO
    TITLE "0:"
    INDEX 01 16:18:05
  TRACK 483 AUDIO
    TITLE "4:cjc087_3547"
    INDEX 01 16:19:03
  TRACK 484 AUDIO
    TITLE "3:cjc087_3548"
    INDEX 01 16:21:19
  TRACK 485 AUDIO
    TITLE "0:"
    INDEX 01 16:23:55
  TRACK 486 AUDIO
    TITLE "4:cjc087_3549"
    INDEX 01 16:24:55
  TRACK 487 AUDIO
    TITLE "3:cjc087_3550"
    INDEX 01 16:27:12
  TRACK 488 AUDIO
    TITLE "0:"
    INDEX 01 16:30:44
  TRACK 489 AUDIO
    TITLE "4:cjc087_3551"
    INDEX 01 16:31:41
  TRACK 490 AUDIO
    TITLE "3:cjc087_3552"
    INDEX 01 16:35:43
  TRACK 491 AUDIO
    TITLE "0:"
    INDEX 01 16:39:05
  TRACK 492 AUDIO
    TITLE "4:cjc087_3553"
    INDEX 01 16:40:05
  TRACK 493 AUDIO
    TITLE "3:cjc087_3554"
    INDEX 01 16:42:25
  TRACK 494 AUDIO
    TITLE "0:"
    INDEX 01 16:45:08
  TRACK 495 AUDIO
    TITLE "4:cjc087_3555"
    INDEX 01 16:46:07
  TRACK 496 AUDIO
    TITLE "3:cjc087_3556"
    INDEX 01 16:48:24
  TRACK 497 AUDIO
    TITLE "0:"
    INDEX 01 16:50:35
  TRACK 498 AUDIO
    TITLE "4:cjc087_3557"
    INDEX 01 16:51:44
  TRACK 499 AUDIO
    TITLE "3:cjc087_3558"
    INDEX 01 16:53:60
  TRACK 500 AUDIO
    TITLE "0:"
    INDEX 01 16:56:57
  TRACK 501 AUDIO
    TITLE "5:cjc087_3559"
    INDEX 01 16:58:18
  TRACK 502 AUDIO
    TITLE "0:"
    INDEX 01 17:00:53
  TRACK 503 AUDIO
    TITLE "4:cjc087_3560"
    INDEX 01 17:01:50
  TRACK 504 AUDIO
    TITLE "3:cjc087_3561"
    INDEX 01 17:04:68
  TRACK 505 AUDIO
    TITLE "0:"
    INDEX 01 17:07:59
  TRACK 506 AUDIO
    TITLE "4:cjc087_3562"
    INDEX 01 17:08:56
  TRACK 507 AUDIO
    TITLE "3:cjc087_3563"
    INDEX 01 17:10:28
  TRACK 508 AUDIO
    TITLE "0:"
    INDEX 01 17:13:02
  TRACK 509 AUDIO
    TITLE "4:cjc087_3564"
    INDEX 01 17:14:00
  TRACK 510 AUDIO
    TITLE "3:cjc087_3565"
    INDEX 01 17:17:26
  TRACK 511 AUDIO
    TITLE "0:"
    INDEX 01 17:20:14
  TRACK 512 AUDIO
    TITLE "4:cjc087_3566"
    INDEX 01 17:21:10
  TRACK 513 AUDIO
    TITLE "3:cjc087_3567"
    INDEX 01 17:22:66
  TRACK 514 AUDIO
    TITLE "0:"
    INDEX 01 17:25:04
  TRACK 515 AUDIO
    TITLE "4:cjc087_3568"
    INDEX 01 17:25:74
  TRACK 516 AUDIO
    TITLE "3:cjc087_3569"
    INDEX 01 17:28:04
  TRACK 517 AUDIO
    TITLE "0:"
    INDEX 01 17:30:03
  TRACK 518 AUDIO
    TITLE "4:cjc087_3570"
    INDEX 01 17:31:00
  TRACK 519 AUDIO
    TITLE "3:cjc087_3571"
    INDEX 01 17:32:00
  TRACK 520 AUDIO
    TITLE "0:"
    INDEX 01 17:34:26
  TRACK 521 AUDIO
    TITLE "4:cjc087_3572"
    INDEX 01 17:35:27
  TRACK 522 AUDIO
    TITLE "3:cjc087_3573"
    INDEX 01 17:37:68
  TRACK 523 AUDIO
    TITLE "0:"
    INDEX 01 17:40:36
